# xmcd
#
# Track frame offsets:
#	150
#	12820
#	26082
#	39240
#	56747
#	76597
#	111815
#	146802
#	173235
#	200647
#
# Disc length: 3061 seconds
#
# Revision: 0
# Processed by: cddbd v1.5.1PL2 Copyright (c) Steve Scherf et al.
# Submitted via: audiograbber 1.83.01
#
DISCID=7e0bf30a
DTITLE=Daryl Hall and John Oates - Live At The Apollo
DYEAR=1985
DGENRE=Rock
TTITLE0=Apollo Medley: Get Ready
TTITLE1=Ain't Too Proud to Beg
TTITLE2=The Way You Do the Things You Do
TTITLE3=My Girl
TTITLE4=When Something Is Wrong With My Baby
TTITLE5=Everytime You Go Away
TTITLE6=I Can't Go For That (No Can Do)
TTITLE7=One On One
TTITLE8=Possession Obsession
TTITLE9=Adult Education
EXTD=ID3G:  17
EXTT0=
EXTT1=
EXTT2=
EXTT3=
EXTT4=
EXTT5=
EXTT6=
EXTT7=
EXTT8=
EXTT9=
PLAYORDER=
